<svg width="182" height="26" viewBox="0 0 182 26" fill="none" xmlns="http://www.w3.org/2000/svg">
<path d="M12.4683 24.1537C12.9957 23.5994 13.4676 22.9064 13.8563 22.1166L16.6458 15.3264L12.7459 5.84766H12.3295C11.6633 5.84766 11.0805 5.97237 10.5947 6.20796C10.0811 6.45734 9.62314 6.76227 9.23452 7.13644C8.84592 7.51061 8.49894 7.94015 8.22136 8.39743C7.92991 8.86859 7.70784 9.32598 7.52741 9.74165C7.23596 10.4484 6.91674 11.2245 6.54201 12.1252C6.19504 12.9705 5.8203 13.8852 5.41782 14.8413C5.01532 15.8113 4.61283 16.7676 4.22422 17.6683C3.82173 18.6106 3.43312 19.5252 3.07227 20.3843C2.30893 22.1997 1.5317 24.0428 0.740601 25.8858H8.01318C9.04023 25.8858 9.9146 25.7335 10.6224 25.4285C11.3302 25.1376 11.9409 24.7079 12.4683 24.1537Z" fill="#33C152"/>
<path fill-rule="evenodd" clip-rule="evenodd" d="M25.0843 16.5461L21.9199 15.3127C21.7673 15.5068 21.5868 15.6591 21.3647 15.7424C21.0316 15.881 20.6569 15.9086 20.2961 15.7701C19.5743 15.4929 19.2135 14.6753 19.4911 13.9547C19.7686 13.2341 20.5875 12.8738 21.3093 13.1648C21.906 13.4004 22.2529 13.9962 22.1975 14.5921L24.6818 15.5622L22.5444 10.2685L20.4488 9.25695C20.0462 9.71424 19.3662 9.8667 18.7972 9.58951C18.1031 9.25695 17.8118 8.41163 18.1449 7.71877C18.478 7.0258 19.3246 6.73485 20.0185 7.06741C20.3655 7.23375 20.6153 7.5247 20.7263 7.87113C20.8096 8.09294 20.8235 8.32852 20.7819 8.56409L22.1142 9.21534L20.6431 5.58464C20.4071 5.61236 20.1712 5.57078 19.9491 5.47379C19.616 5.33521 19.3384 5.05805 19.1996 4.71161C18.9081 3.99101 19.269 3.17341 19.9907 2.89626C20.7124 2.60525 21.5313 2.96555 21.8089 3.68615C22.0448 4.28202 21.8366 4.93334 21.3647 5.30749L23.974 11.7652L24.7374 10.5596C24.5708 10.3794 24.4736 10.1715 24.4182 9.93594C24.3348 9.58951 24.3903 9.20147 24.5986 8.88278C25.0149 8.23143 25.8754 8.03746 26.5277 8.43937C27.18 8.85504 27.3744 9.71424 26.9718 10.3656C26.6388 10.906 25.9864 11.1277 25.3896 10.9615L24.3348 12.6382L26.3611 17.6547L27.638 15.6454C27.4715 15.4652 27.3744 15.2573 27.3188 15.0218C27.2356 14.6753 27.2911 14.2873 27.4992 13.9686C27.9156 13.3172 28.7761 13.1233 29.4284 13.5251C30.0808 13.9409 30.275 14.8001 29.8726 15.4513C29.5395 15.9918 28.8872 16.2135 28.2903 16.0472L26.7221 18.5278L28.6373 23.2809H36.0348C35.5002 22.0206 34.9735 20.7761 34.4527 19.5454L34.4519 19.5435C33.9994 18.4744 33.5514 17.4157 33.1063 16.366C33.0032 16.1209 32.8991 15.8731 32.7939 15.6225L32.7939 15.6225L32.7933 15.6211L32.7926 15.6194L32.7925 15.6191C32.4876 14.8932 32.1731 14.1444 31.8434 13.3726L31.8431 13.3719C31.3991 12.3328 30.955 11.2938 30.5249 10.2685C30.0946 9.24308 29.6782 8.2453 29.2896 7.28912C28.9011 6.33296 28.5402 5.45993 28.2071 4.65618C28.0127 4.17116 27.7352 3.64457 27.4021 3.09026C27.069 2.53596 26.6665 2.03708 26.1807 1.57977C25.7088 1.12247 25.1537 0.748319 24.5153 0.443446C23.8768 0.138572 23.1551 0 22.3363 0H9.24841V0.263295C9.62314 0.263295 10.0118 0.415727 10.4142 0.706741C10.8167 1.01161 11.2054 1.37191 11.5801 1.81536C11.9548 2.25881 12.3017 2.74382 12.6348 3.25655C12.7037 3.37011 12.7712 3.48108 12.8372 3.58948L12.8372 3.5895C13.0772 3.98378 13.2964 4.34396 13.4814 4.67004L19.283 18.7495C19.7547 19.6918 20.2961 20.4955 20.9345 21.1607C21.5729 21.8259 22.3085 22.3386 23.169 22.7128C24.0295 23.0731 25.0565 23.2671 26.2779 23.2671H27.8046L25.0843 16.5461ZM26.4172 9.47892C26.445 9.63138 26.4311 9.79762 26.3339 9.95009C26.1396 10.255 25.751 10.3381 25.4595 10.1579C25.168 9.96396 25.0848 9.5759 25.2652 9.28494C25.4595 8.99387 25.8482 8.91076 26.1396 9.09086C26.2923 9.17408 26.3756 9.32645 26.4172 9.47892ZM29.2922 14.5648C29.32 14.7173 29.3061 14.8836 29.2089 15.0361C29.0285 15.3271 28.6399 15.424 28.3345 15.2439C28.043 15.0499 27.9598 14.6619 28.1402 14.3708C28.3345 14.0798 28.7231 13.9967 29.0146 14.1769C29.1673 14.26 29.2505 14.4125 29.2922 14.5648ZM18.8573 8.05254C19.01 7.7477 19.3847 7.60911 19.704 7.76158C20.0093 7.91394 20.1482 8.30199 19.9955 8.60693C19.8428 8.91176 19.4681 9.05036 19.1488 8.89789C18.9962 8.82865 18.8851 8.69005 18.8296 8.53758C18.774 8.38522 18.7879 8.20501 18.8573 8.05254ZM21.0464 13.8854C20.8798 13.8161 20.7133 13.8299 20.5606 13.8993C20.408 13.9685 20.2831 14.0794 20.2275 14.2457C20.1027 14.5644 20.2692 14.9386 20.5885 15.0633C20.9077 15.1881 21.2824 15.0218 21.4074 14.703C21.5322 14.3843 21.3656 14.024 21.0464 13.8854ZM20.2993 3.60347C20.4659 3.54803 20.6325 3.54803 20.7851 3.61733C20.9239 3.67276 21.0489 3.79748 21.1182 3.96378C21.2432 4.28252 21.0766 4.65669 20.7574 4.78141C20.4382 4.90613 20.0634 4.73984 19.9385 4.4211C19.8136 4.10236 19.9801 3.72819 20.2993 3.60347Z" fill="#33C152"/>
<path d="M60.0844 19.9858L60.126 19.9581C60.1676 19.9303 60.1954 19.9026 60.2093 19.8472C60.2371 19.7641 60.2509 19.6809 60.2509 19.5978V5.62922C60.2509 5.53221 60.2371 5.46293 60.2093 5.39364C60.1815 5.3382 60.1538 5.29664 60.0844 5.2412L60.0428 5.21349C60.0149 5.18577 59.9733 5.15805 59.9317 5.15805C59.8068 5.13035 59.7374 5.13035 59.6958 5.13035H57.8498C57.6694 5.13035 57.5862 5.1442 57.5585 5.1442C57.5445 5.1442 57.5306 5.15805 57.5306 5.15805C57.5306 5.15805 57.489 5.19963 57.4474 5.3105C57.3919 5.43521 57.3363 5.6015 57.2531 5.79551L56.6424 7.72173L56.1566 7.02887C55.9485 6.73782 55.7125 6.44687 55.435 6.19739C55.1573 5.94795 54.852 5.72622 54.5189 5.54607C54.1858 5.36592 53.7972 5.21349 53.3947 5.11649C52.9922 5.00562 52.5342 4.9502 52.0623 4.9502C50.9937 4.9502 49.9805 5.14421 49.0506 5.54607C48.1207 5.93409 47.3018 6.48837 46.6079 7.18123C45.9139 7.8742 45.3727 8.69178 44.9701 9.63409C44.5677 10.5625 44.3734 11.5881 44.3734 12.6828C44.3734 13.4034 44.4705 14.1102 44.6509 14.7614C44.8314 15.4266 45.0951 16.0502 45.4282 16.6184C45.7613 17.1865 46.1638 17.7132 46.6217 18.1843C47.0798 18.6555 47.6072 19.0573 48.1763 19.3899C48.7452 19.7225 49.3559 19.9858 50.0083 20.1659C50.6606 20.3461 51.3545 20.4431 52.0623 20.4431C52.451 20.4431 52.8257 20.4015 53.1865 20.3045C53.5474 20.2075 53.8943 20.0828 54.2135 19.9303C54.5328 19.7779 54.8243 19.5978 55.088 19.3899C55.3516 19.182 55.6015 18.9742 55.8097 18.7663L56.3093 18.2674L56.6563 19.4869C56.6979 19.6255 56.7535 19.7364 56.7951 19.8611C56.8228 19.9442 56.8644 19.9997 56.8923 20.0551C56.92 20.0828 56.9478 20.1105 56.9894 20.1244C57.0171 20.1382 57.1004 20.1659 57.2531 20.1659H59.7097C59.7513 20.1659 59.8345 20.1659 59.9456 20.1382C59.9872 20.1244 60.0289 20.1105 60.0567 20.0828L60.0844 19.9858ZM56.0317 14.3457C55.8097 14.8723 55.5043 15.3296 55.1157 15.7176C54.7271 16.1056 54.2691 16.4106 53.7416 16.6323C53.2143 16.854 52.6453 16.9648 52.0346 16.9648C51.4378 16.9648 50.8826 16.854 50.383 16.6184C49.8972 16.3967 49.467 16.0779 49.1061 15.6899C48.7591 15.3019 48.4816 14.8446 48.3012 14.318C48.1207 13.8052 48.0236 13.2371 48.0236 12.6412C48.0236 12.0731 48.1207 11.5048 48.3012 10.9922C48.4816 10.4655 48.7591 9.99439 49.1061 9.59248C49.4531 9.19067 49.8833 8.85801 50.383 8.62243C50.8826 8.38685 51.4378 8.26213 52.0346 8.26213C52.6453 8.26213 53.2281 8.38685 53.7556 8.60867C54.283 8.84424 54.741 9.16293 55.1296 9.56485C55.5182 9.96665 55.8235 10.4378 56.0456 10.9644C56.2677 11.4911 56.3787 12.0592 56.3787 12.6412C56.3648 13.2648 56.2538 13.833 56.0317 14.3457Z" fill="white"/>
<path d="M76.579 21.5375C76.9816 20.5813 77.1758 19.4726 77.1758 18.2531V5.6288C77.1758 5.54566 77.162 5.47637 77.1341 5.42095C77.1064 5.36551 77.0648 5.31008 77.0232 5.28236C76.9676 5.2408 76.8982 5.19922 76.8289 5.17151C76.7594 5.14379 76.6901 5.12993 76.6206 5.12993H74.7747C74.622 5.12993 74.5527 5.14379 74.525 5.15765C74.4694 5.18536 74.4416 5.19922 74.4278 5.21308C74.4 5.25466 74.3584 5.31008 74.3445 5.37937C74.3028 5.49023 74.2612 5.61496 74.2057 5.75353L73.6228 7.58273L73.137 6.98685C72.9011 6.6959 72.6374 6.41871 72.3737 6.1554C72.11 5.90596 71.8046 5.68424 71.4854 5.50409C71.1662 5.32394 70.8053 5.1715 70.4168 5.06065C70.0281 4.94978 69.5979 4.9082 69.126 4.9082C68.0712 4.9082 67.0858 5.10221 66.1836 5.50409C65.2816 5.8921 64.5043 6.44645 63.852 7.13931C63.1997 7.83217 62.6723 8.64976 62.3114 9.5783C61.9367 10.5067 61.7562 11.5322 61.7562 12.6131C61.7562 13.694 61.9367 14.6917 62.3114 15.5924C62.6723 16.4794 63.1997 17.2692 63.8381 17.9067C64.4904 18.5442 65.2816 19.0569 66.1698 19.4172C67.072 19.7775 68.0574 19.9577 69.126 19.9577C69.584 19.9577 69.9865 19.9022 70.3334 19.7913C70.6804 19.6805 70.9858 19.5419 71.2634 19.3618C71.541 19.1816 71.7908 18.9737 72.0268 18.752C72.2627 18.5165 72.5125 18.2531 72.7484 18.0037L73.4701 17.2416V18.461C73.4701 18.4748 73.4701 18.4748 73.4701 18.4887C73.484 18.5303 73.484 18.5857 73.484 18.6412V18.8075C73.484 19.0292 73.4701 19.2509 73.4562 19.4588C73.4423 19.6805 73.3869 19.9022 73.3313 20.0963C73.2064 20.5258 72.9982 20.9 72.6791 21.2325C72.3876 21.5375 72.0406 21.8145 71.6519 22.0225C71.2634 22.2303 70.8469 22.3966 70.4168 22.5075C69.9865 22.6184 69.5563 22.6737 69.1537 22.6737C68.9178 22.6737 68.6541 22.6599 68.3765 22.6461C68.0712 22.6184 67.7659 22.5767 67.4605 22.4936C67.1552 22.4243 66.8498 22.3134 66.5583 22.1887C66.2531 22.0502 65.9894 21.87 65.7535 21.6483C65.4758 21.4542 65.3648 21.4405 65.337 21.4405C65.2954 21.4405 65.2677 21.4542 65.2398 21.4681C65.1982 21.4958 65.115 21.5513 65.0178 21.6622L63.852 23.2696C63.7548 23.4221 63.6993 23.5607 63.6993 23.6854C63.6993 23.7685 63.7132 23.8516 63.7688 23.921C63.8242 24.0179 63.8936 24.0873 63.9769 24.1565L64.0047 24.1843C64.3378 24.4752 64.7403 24.7524 65.1844 24.9741C65.6424 25.2097 66.1143 25.4038 66.6001 25.5423C67.0858 25.6947 67.5855 25.8056 68.0712 25.8887C68.557 25.958 69.0288 25.9996 69.4452 25.9996C70.5417 25.9996 71.5826 25.8194 72.5264 25.473C73.4701 25.1266 74.3028 24.6277 74.9829 23.9763C75.6213 23.2973 76.1766 22.4936 76.579 21.5375ZM73.72 12.8486C73.6922 13.4169 73.5534 13.9573 73.3313 14.4562C73.0954 14.9412 72.79 15.3846 72.4015 15.7449C72.0129 16.1052 71.5549 16.3963 71.0413 16.6041C70.5277 16.8119 69.9726 16.9089 69.3897 16.9089C68.7929 16.9089 68.2378 16.7981 67.752 16.5764C67.2524 16.3547 66.836 16.0498 66.4751 15.6618C66.1282 15.2738 65.8505 14.8165 65.6701 14.2898C65.4897 13.7771 65.3925 13.2089 65.3925 12.6131C65.3925 12.0449 65.4897 11.4768 65.6701 10.964C65.8505 10.4374 66.1282 9.96623 66.4751 9.5783C66.8221 9.17639 67.2524 8.8577 67.7381 8.62202C68.2378 8.38644 68.7929 8.26172 69.3897 8.26172C69.9726 8.26172 70.5278 8.37268 71.0552 8.59438C71.5687 8.81609 72.0268 9.12091 72.4015 9.49508C72.7762 9.86925 73.0954 10.3127 73.3313 10.8116C73.5673 11.3105 73.6922 11.8371 73.72 12.4052V12.4191V12.8486Z" fill="white"/>
<path d="M91.59 6.83606C91.59 6.71134 91.4789 6.58661 91.2569 6.46189L91.2152 6.43415C90.8543 6.17084 90.5213 5.94912 90.2298 5.75511C89.9384 5.57496 89.6469 5.42252 89.3554 5.2978C89.0639 5.18695 88.7586 5.08994 88.4395 5.03451C88.1202 4.97908 87.7316 4.9375 87.3153 4.9375C86.9404 4.9375 86.6073 4.99294 86.316 5.1038C86.0106 5.21466 85.3999 5.54725 85.1501 5.74125C84.2063 6.48952 83.5818 7.48731 83.5818 7.48731C83.5818 7.48731 82.9433 5.76896 82.8601 5.60267C82.7906 5.46409 82.7213 5.33938 82.6241 5.25623C82.6102 5.24237 82.5547 5.18695 82.4159 5.18695H80.5423C80.4729 5.18695 80.3896 5.2008 80.3063 5.22851C80.237 5.25623 80.1675 5.28394 80.112 5.32552C80.0704 5.3671 80.0288 5.40866 80.001 5.46409C79.9732 5.51953 79.9594 5.60267 79.9594 5.68582V19.5573C79.9594 19.9592 80.0982 20.0978 80.5146 20.0978H83.3042C83.5263 20.0978 83.6928 20.0562 83.7622 19.987C83.8594 19.89 83.8733 19.6959 83.8733 19.5573V10.4667L83.9287 10.3697C84.1091 10.0787 84.2896 9.81544 84.4701 9.566C84.6644 9.31655 84.8725 9.08097 85.0946 8.90077C85.3306 8.7068 85.5942 8.55434 85.8857 8.44349C86.1772 8.33263 86.5103 8.27715 86.885 8.27715C87.4123 8.27715 87.8981 8.37424 88.3145 8.56821C88.7031 8.74841 89.0917 9.01162 89.4665 9.37192C89.5914 9.4274 89.7024 9.44127 89.7996 9.44127C89.9244 9.44127 90.091 9.41353 90.2854 9.15022L91.4096 7.23786C91.5761 7.03003 91.59 6.89143 91.59 6.83606Z" fill="white"/>
<path d="M104.959 18.1575C105.417 17.7003 105.834 17.1736 106.167 16.6055C106.5 16.0374 106.764 15.4137 106.944 14.7485C107.124 14.0834 107.222 13.3905 107.222 12.6699C107.222 11.589 107.014 10.5635 106.611 9.63506C106.209 8.70663 105.653 7.87517 104.959 7.18221C104.266 6.48935 103.447 5.94892 102.503 5.54705C101.573 5.15903 100.56 4.95117 99.4911 4.95117C98.7695 4.95117 98.0755 5.04818 97.4094 5.22833C96.7432 5.40848 96.1186 5.67177 95.5495 5.99049C94.9805 6.32308 94.4531 6.72492 93.9951 7.18221C93.5232 7.65347 93.1208 8.16612 92.7877 8.73437C92.4546 9.3025 92.1908 9.92612 92.0104 10.5912C91.83 11.2564 91.7328 11.9493 91.7328 12.6699C91.7328 13.3905 91.83 14.0834 92.0104 14.7485C92.1908 15.4137 92.4546 16.0374 92.7877 16.6055C93.1208 17.1736 93.5232 17.7003 93.9951 18.1575C94.4531 18.6287 94.9805 19.0306 95.5495 19.3632C96.1186 19.6957 96.7432 19.959 97.4094 20.1391C98.0755 20.3193 98.7695 20.4163 99.4911 20.4163C100.199 20.4163 100.893 20.3193 101.545 20.1391C102.198 19.959 102.822 19.6957 103.391 19.3632C103.974 19.0167 104.502 18.6148 104.959 18.1575ZM103.114 14.319C102.933 14.8456 102.669 15.3029 102.336 15.6909C102.003 16.0789 101.573 16.3977 101.087 16.6194C100.601 16.8411 100.046 16.9658 99.4495 16.9658C98.8388 16.9658 98.2698 16.8549 97.7841 16.6194C97.2844 16.3977 96.868 16.0789 96.521 15.6909C96.1741 15.3029 95.9104 14.8456 95.716 14.319C95.5356 13.8062 95.4385 13.2381 95.4385 12.6422C95.4385 12.0741 95.5356 11.5058 95.716 10.9932C95.8966 10.4665 96.1741 9.99537 96.5072 9.59346C96.8541 9.19165 97.2844 8.85898 97.7702 8.62341C98.2698 8.38783 98.8249 8.26311 99.4495 8.26311C100.046 8.26311 100.601 8.38783 101.087 8.62341C101.573 8.85898 101.989 9.19165 102.336 9.59346C102.669 9.99537 102.933 10.4665 103.1 10.9932C103.28 11.5197 103.363 12.0602 103.363 12.6422C103.377 13.2519 103.294 13.8062 103.114 14.319Z" fill="white"/>
<path d="M116.438 8.56793C116.521 8.48482 116.563 8.33236 116.563 8.09678V5.69938C116.563 5.50538 116.521 5.3668 116.438 5.29751C116.383 5.24208 116.286 5.17279 116.078 5.17279H113.953L113.967 1.34807C113.967 1.1402 113.939 0.973908 113.87 0.863055C113.856 0.835336 113.773 0.807617 113.62 0.807617H113.509H113.496L110.707 1.77765C110.442 1.87466 110.234 1.98552 110.095 2.08253C110.068 2.09639 110.012 2.15181 110.012 2.33196L109.998 5.18665H108.305C107.903 5.18665 107.764 5.31137 107.764 5.71324V8.11065C107.764 8.60954 107.958 8.69266 108.305 8.69266H109.998L110.012 19.5709C110.012 19.9728 110.137 20.1114 110.553 20.1114H113.357C113.579 20.1114 113.731 20.0698 113.842 19.9728C113.87 19.9451 113.981 19.8481 113.981 19.5709L113.967 8.69266H116.091C116.286 8.67879 116.383 8.60954 116.438 8.56793Z" fill="white"/>
<path d="M131.491 18.1575C131.948 17.7003 132.365 17.1736 132.697 16.6055C133.031 16.0374 133.295 15.4137 133.475 14.7485C133.655 14.0834 133.753 13.3905 133.753 12.6699C133.753 11.589 133.545 10.5635 133.142 9.63506C132.739 8.70663 132.184 7.87517 131.491 7.18221C130.796 6.48935 129.978 5.94892 129.034 5.54705C128.104 5.15903 127.091 4.95117 126.022 4.95117C125.3 4.95117 124.607 5.04818 123.94 5.22833C123.274 5.40848 122.649 5.67177 122.08 5.99049C121.512 6.32308 120.984 6.72492 120.526 7.18221C120.054 7.65347 119.652 8.16612 119.318 8.73437C118.985 9.3025 118.722 9.92612 118.541 10.5912C118.361 11.2564 118.264 11.9493 118.264 12.6699C118.264 13.3905 118.361 14.0834 118.541 14.7485C118.722 15.4137 118.985 16.0374 119.318 16.6055C119.652 17.1736 120.054 17.7003 120.526 18.1575C120.997 18.6287 121.512 19.0306 122.08 19.3632C122.649 19.6957 123.274 19.959 123.94 20.1391C124.607 20.3193 125.3 20.4163 126.022 20.4163C126.73 20.4163 127.424 20.3193 128.077 20.1391C128.728 19.959 129.353 19.6957 129.922 19.3632C130.505 19.0167 131.018 18.6148 131.491 18.1575ZM129.645 14.319C129.464 14.8456 129.2 15.3029 128.867 15.6909C128.534 16.0789 128.104 16.3977 127.618 16.6194C127.132 16.8411 126.578 16.9658 125.98 16.9658C125.37 16.9658 124.801 16.8549 124.315 16.6194C123.815 16.3977 123.399 16.0789 123.052 15.6909C122.705 15.3029 122.441 14.8456 122.247 14.319C122.067 13.8062 121.969 13.2381 121.969 12.6422C121.969 12.0741 122.067 11.5058 122.247 10.9932C122.427 10.4665 122.705 9.99537 123.039 9.59346C123.385 9.19165 123.815 8.85898 124.301 8.62341C124.801 8.38783 125.356 8.26311 125.98 8.26311C126.578 8.26311 127.132 8.38783 127.618 8.62341C128.104 8.85898 128.52 9.19165 128.867 9.59346C129.2 9.99537 129.464 10.4665 129.631 10.9932C129.811 11.5197 129.895 12.0741 129.895 12.6422C129.908 13.2519 129.825 13.8062 129.645 14.319Z" fill="white"/>
<path d="M146 19.64C146.166 19.8756 146.277 19.9864 146.346 20.0558C146.416 20.1112 146.457 20.1112 146.471 20.1112H150.663C150.843 20.1112 150.857 19.9587 150.83 19.8895C150.802 19.834 150.76 19.7647 150.691 19.6955L144.043 11.1453L149.386 5.50518C149.469 5.40818 149.497 5.36661 149.497 5.35275C149.497 5.35275 149.497 5.33889 149.497 5.31117C149.497 5.25574 149.483 5.24188 149.483 5.24188C149.483 5.24188 149.428 5.20032 149.234 5.20032H145.417C145.237 5.20032 145.098 5.2696 144.958 5.42203L139.754 11.1869V0.932152C139.754 0.876714 139.74 0.821288 139.726 0.752002C139.712 0.710423 139.698 0.682705 139.671 0.641137C139.643 0.613419 139.615 0.5857 139.56 0.557992C139.532 0.544133 139.476 0.530273 139.366 0.530273H136.395C136.146 0.530273 136.021 0.557992 135.965 0.571851C135.896 0.599559 135.868 0.627278 135.868 0.627278C135.854 0.641137 135.854 0.654997 135.84 0.710424C135.827 0.821288 135.827 0.932152 135.827 1.07072V19.6955C135.827 19.7093 135.84 19.737 135.854 19.7647C135.868 19.8202 135.91 19.8895 135.951 19.9587C135.979 20.0142 136.035 20.0696 136.104 20.1112C136.132 20.125 136.159 20.1528 136.243 20.1528H139.366C139.449 20.1528 139.518 20.1389 139.546 20.1112C139.601 20.0696 139.643 20.0281 139.685 19.9726C139.726 19.9172 139.74 19.8479 139.754 19.7925C139.768 19.6816 139.782 19.6261 139.782 19.6123V15.4411L141.627 13.5288L146 19.64Z" fill="white"/>
<path d="M164.867 13.0018C164.881 12.7386 164.881 12.3922 164.881 11.9625C164.881 11.3389 164.798 10.7292 164.618 10.1472C164.437 9.56517 164.188 8.99703 163.869 8.48426C163.549 7.9715 163.16 7.48648 162.717 7.04306C162.273 6.59965 161.772 6.22548 161.245 5.92061C160.704 5.61574 160.135 5.3663 159.524 5.18615C158.914 5.01986 158.289 4.92285 157.637 4.92285C156.928 4.92285 156.249 5.01986 155.611 5.20001C154.972 5.38016 154.375 5.65731 153.821 5.98989C153.279 6.32248 152.779 6.73824 152.335 7.2094C151.89 7.68055 151.516 8.20708 151.197 8.77532C150.892 9.34346 150.642 9.95321 150.476 10.5907C150.308 11.2281 150.225 11.9072 150.225 12.6C150.225 13.6948 150.434 14.7341 150.864 15.6625C151.28 16.6048 151.863 17.4225 152.585 18.1154C153.306 18.8083 154.153 19.3625 155.11 19.7506C156.069 20.1386 157.096 20.3464 158.164 20.3464C159.122 20.3464 160.037 20.1663 160.898 19.8199C161.758 19.4596 162.55 18.9607 163.23 18.3232L163.271 18.2955C163.368 18.2262 163.438 18.1569 163.507 18.0599C163.535 18.0323 163.563 17.9768 163.563 17.8798C163.563 17.8243 163.563 17.7828 163.535 17.7273C163.535 17.7273 163.521 17.6857 163.438 17.5888L162.134 16.1198C162.023 16.009 161.911 15.912 161.828 15.8566C161.786 15.8289 161.758 15.815 161.731 15.815C161.689 15.815 161.661 15.8289 161.634 15.8427C161.578 15.8705 161.495 15.9258 161.37 16.0367C161.204 16.203 160.968 16.3693 160.704 16.5217C160.441 16.6742 160.148 16.7989 159.829 16.9098C159.524 17.0206 159.191 17.1037 158.859 17.1731C158.525 17.2423 158.178 17.2701 157.859 17.2701C157.498 17.2701 157.11 17.2146 156.707 17.1176C156.29 17.0206 155.888 16.8404 155.528 16.6048C155.152 16.3693 154.819 16.0367 154.542 15.6487C154.25 15.2469 154.056 14.7341 153.973 14.1521L153.904 13.6671H163.327C163.813 13.6671 164.188 13.6393 164.424 13.584C164.535 13.5562 164.687 13.5007 164.756 13.4176C164.826 13.3345 164.867 13.1959 164.867 13.0018ZM153.876 10.9925L154.153 10.3966C154.292 10.0918 154.486 9.78687 154.722 9.48205C154.958 9.191 155.208 8.91392 155.5 8.67834C155.791 8.44265 156.11 8.24869 156.443 8.1101C156.79 7.95774 157.165 7.88839 157.54 7.88839C158.025 7.88839 158.469 7.95774 158.845 8.08236C159.219 8.20708 159.566 8.40115 159.857 8.63673C160.148 8.85844 160.399 9.13562 160.635 9.44044C160.843 9.7315 161.051 10.0502 161.231 10.3828L161.564 10.9925H153.876Z" fill="white"/>
<path d="M177.499 20.04C177.499 20.04 177.596 20.1094 177.942 20.1094H180.816C180.927 20.1094 181.079 20.0955 181.148 20.0124C181.218 19.9292 181.259 19.7767 181.259 19.5689V11.4483C181.259 10.5475 181.135 9.6884 180.871 8.89845C180.621 8.10861 180.247 7.41575 179.76 6.83364C179.289 6.25166 178.692 5.79435 178.012 5.46177C177.332 5.12918 176.54 4.96289 175.667 4.96289C175.041 4.96289 174.473 5.03218 173.973 5.17076C173.474 5.30933 173.015 5.46177 172.641 5.68349C171.142 6.61193 170.67 8.08087 170.67 8.08087L170.142 5.8775C170.1 5.76664 170.059 5.65577 170.031 5.55878C170.003 5.48948 169.962 5.4202 169.92 5.36477C169.879 5.32319 169.837 5.28162 169.781 5.2539C169.74 5.22619 169.671 5.21233 169.587 5.21233H167.714C167.631 5.21233 167.547 5.22619 167.45 5.24004C167.409 5.2539 167.353 5.26776 167.312 5.30933L167.325 5.32319C167.27 5.36477 167.228 5.40634 167.187 5.47562C167.145 5.54492 167.131 5.62806 167.131 5.71121V19.5827C167.131 19.7629 167.173 19.9014 167.256 19.9985C167.325 20.0816 167.492 20.1232 167.714 20.1232H170.518C170.601 20.1232 170.684 20.1094 170.74 20.0955C170.795 20.0816 170.851 20.0539 170.92 20.0124C170.934 19.9985 170.975 19.9708 171.003 19.8877C171.045 19.7906 171.059 19.7075 171.059 19.6105V11.5175C171.086 11.088 171.211 10.6722 171.419 10.3119C171.613 9.95161 171.864 9.64679 172.155 9.36961C172.447 9.10629 172.78 8.89845 173.126 8.74599C173.904 8.41343 174.667 8.45504 175.389 8.75986C175.764 8.91232 176.11 9.13403 176.416 9.41122C176.721 9.6884 176.958 10.0071 177.152 10.3674C177.346 10.7416 177.443 11.1434 177.443 11.5591V19.6382C177.443 19.9569 177.499 20.04 177.499 20.04Z" fill="white"/>
</svg>
