<svg xmlns="http://www.w3.org/2000/svg" xmlns:xlink="http://www.w3.org/1999/xlink" width="500" zoomAndPan="magnify" viewBox="0 0 375 374.999991" height="500" preserveAspectRatio="xMidYMid meet" version="1.0"><defs><clipPath id="97a4cd0487"><path d="M 92 58.019531 L 359 58.019531 L 359 290 L 92 290 Z M 92 58.019531 " clip-rule="nonzero"/></clipPath></defs><path fill="#33c152" d="M 124.207031 298.398438 C 129.460938 292.878906 134.160156 285.984375 138.03125 278.125 L 165.8125 210.546875 L 126.972656 116.214844 L 122.824219 116.214844 C 116.1875 116.214844 110.382812 117.457031 105.546875 119.800781 C 100.429688 122.285156 95.867188 125.320312 92 129.042969 C 88.128906 132.765625 84.671875 137.039062 81.90625 141.59375 C 79.003906 146.28125 76.792969 150.832031 74.996094 154.96875 C 72.09375 162.003906 68.914062 169.726562 65.179688 178.691406 C 61.726562 187.101562 57.992188 196.207031 53.984375 205.722656 C 49.976562 215.375 45.96875 224.890625 42.097656 233.855469 C 38.085938 243.234375 34.21875 252.335938 30.621094 260.882812 C 23.019531 278.949219 15.277344 297.292969 7.398438 315.632812 L 79.832031 315.632812 C 90.0625 315.632812 98.773438 314.117188 105.820312 311.082031 C 112.871094 308.1875 118.953125 303.914062 124.207031 298.398438 Z M 124.207031 298.398438 " fill-opacity="1" fill-rule="nonzero"/><g clip-path="url(#97a4cd0487)"><path fill="#33c152" d="M 249.859375 222.6875 L 218.34375 210.410156 C 216.824219 212.34375 215.027344 213.859375 212.8125 214.6875 C 209.496094 216.066406 205.765625 216.34375 202.171875 214.964844 C 194.980469 212.207031 191.386719 204.070312 194.152344 196.898438 C 196.917969 189.726562 205.074219 186.140625 212.261719 189.035156 C 218.207031 191.382812 221.660156 197.308594 221.109375 203.242188 L 245.851562 212.894531 L 224.5625 160.210938 L 203.691406 150.144531 C 199.683594 154.695312 192.910156 156.214844 187.242188 153.457031 C 180.328125 150.144531 177.425781 141.734375 180.746094 134.835938 C 184.0625 127.941406 192.496094 125.046875 199.40625 128.355469 C 202.863281 130.011719 205.351562 132.90625 206.457031 136.355469 C 207.285156 138.5625 207.421875 140.90625 207.007812 143.25 L 220.277344 149.730469 L 205.625 113.597656 C 203.277344 113.875 200.925781 113.460938 198.714844 112.496094 C 195.398438 111.117188 192.632812 108.359375 191.25 104.910156 C 188.347656 97.738281 191.941406 89.601562 199.128906 86.84375 C 206.316406 83.949219 214.472656 87.535156 217.238281 94.707031 C 219.585938 100.636719 217.515625 107.117188 212.8125 110.839844 L 238.800781 175.109375 L 246.40625 163.109375 C 244.746094 161.316406 243.777344 159.246094 243.226562 156.902344 C 242.394531 153.457031 242.949219 149.59375 245.023438 146.421875 C 249.167969 139.941406 257.738281 138.007812 264.238281 142.007812 C 270.734375 146.144531 272.667969 154.695312 268.660156 161.179688 C 265.34375 166.558594 258.84375 168.761719 252.902344 167.109375 L 242.394531 183.796875 L 262.578125 233.71875 L 275.296875 213.722656 C 273.636719 211.929688 272.667969 209.859375 272.117188 207.515625 C 271.289062 204.070312 271.839844 200.207031 273.914062 197.035156 C 278.058594 190.554688 286.628906 188.625 293.128906 192.621094 C 299.625 196.761719 301.558594 205.3125 297.550781 211.792969 C 294.234375 217.171875 287.738281 219.375 281.792969 217.722656 L 266.171875 242.410156 L 285.25 289.710938 L 358.925781 289.710938 C 353.601562 277.167969 348.355469 264.785156 343.167969 252.535156 L 343.160156 252.515625 C 338.652344 241.878906 334.191406 231.339844 329.757812 220.894531 C 328.730469 218.457031 327.695312 215.988281 326.648438 213.496094 L 326.632812 213.464844 L 326.632812 213.460938 C 323.597656 206.238281 320.464844 198.785156 317.179688 191.105469 L 317.175781 191.097656 C 312.753906 180.757812 308.332031 170.417969 304.046875 160.210938 C 299.761719 150.007812 295.617188 140.078125 291.746094 130.5625 C 287.875 121.046875 284.28125 112.359375 280.964844 104.359375 C 279.027344 99.53125 276.261719 94.292969 272.945312 88.773438 C 269.628906 83.257812 265.621094 78.292969 260.78125 73.742188 C 256.082031 69.191406 250.550781 65.46875 244.195312 62.433594 C 237.835938 59.398438 230.644531 58.019531 222.492188 58.019531 L 92.136719 58.019531 L 92.136719 60.640625 C 95.867188 60.640625 99.738281 62.160156 103.746094 65.054688 C 107.757812 68.089844 111.628906 71.675781 115.359375 76.085938 C 119.09375 80.5 122.546875 85.328125 125.863281 90.429688 C 126.550781 91.558594 127.222656 92.664062 127.878906 93.742188 C 130.269531 97.667969 132.453125 101.253906 134.296875 104.496094 L 192.082031 244.613281 C 196.777344 253.992188 202.171875 261.992188 208.527344 268.609375 C 214.886719 275.230469 222.214844 280.332031 230.785156 284.058594 C 239.355469 287.644531 249.582031 289.574219 261.75 289.574219 L 276.953125 289.574219 Z M 263.136719 152.355469 C 263.414062 153.871094 263.273438 155.527344 262.304688 157.042969 C 260.371094 160.078125 256.5 160.90625 253.597656 159.113281 C 250.695312 157.183594 249.867188 153.320312 251.664062 150.425781 C 253.597656 147.527344 257.46875 146.699219 260.371094 148.492188 C 261.890625 149.320312 262.722656 150.835938 263.136719 152.355469 Z M 291.769531 202.96875 C 292.046875 204.488281 291.910156 206.140625 290.941406 207.660156 C 289.144531 210.554688 285.273438 211.519531 282.230469 209.726562 C 279.328125 207.796875 278.5 203.933594 280.296875 201.039062 C 282.230469 198.140625 286.101562 197.316406 289.007812 199.109375 C 290.527344 199.9375 291.355469 201.453125 291.769531 202.96875 Z M 187.839844 138.160156 C 189.359375 135.125 193.09375 133.746094 196.273438 135.265625 C 199.3125 136.78125 200.699219 140.640625 199.175781 143.675781 C 197.65625 146.710938 193.925781 148.089844 190.742188 146.574219 C 189.222656 145.882812 188.117188 144.503906 187.566406 142.988281 C 187.011719 141.46875 187.148438 139.675781 187.839844 138.160156 Z M 209.644531 196.207031 C 207.984375 195.519531 206.324219 195.65625 204.804688 196.347656 C 203.285156 197.035156 202.042969 198.136719 201.488281 199.792969 C 200.246094 202.964844 201.902344 206.6875 205.082031 207.929688 C 208.261719 209.171875 211.996094 207.515625 213.238281 204.34375 C 214.480469 201.171875 212.824219 197.585938 209.644531 196.207031 Z M 202.203125 93.882812 C 203.863281 93.332031 205.519531 93.332031 207.042969 94.019531 C 208.421875 94.574219 209.667969 95.8125 210.359375 97.46875 C 211.605469 100.640625 209.945312 104.363281 206.765625 105.605469 C 203.585938 106.847656 199.851562 105.191406 198.609375 102.019531 C 197.363281 98.847656 199.023438 95.125 202.203125 93.882812 Z M 202.203125 93.882812 " fill-opacity="1" fill-rule="evenodd"/></g></svg>